<svg version="1.1" xmlns="http://www.w3.org/2000/svg" style="display: block;" viewBox="25.36 632.33 2000.896 956.416" width="977" height="467" preserveAspectRatio="none" xmlns:xlink="http://www.w3.org/1999/xlink">
<defs>
	<linearGradient id="Gradient1" gradientUnits="userSpaceOnUse" x1="673.123" y1="925.673" x2="564.971" y2="857.999">
		<stop class="stop0" offset="0" stop-opacity="1" stop-color="rgb(63,51,113)"></stop>
		<stop class="stop1" offset="1" stop-opacity="1" stop-color="rgb(28,59,126)"></stop>
	</linearGradient>
</defs>

<path transform="translate(0,0)" fill="rgb(26,110,102)" d="M 661.79 804.791 C 665.359 797.216 667.865 777.435 670.225 768.009 C 674.818 749.666 684.236 711.716 701.716 702.021 C 705.236 700.068 709.081 699.677 712.925 700.918 C 726.923 705.435 733.685 723.801 739.706 735.839 C 744.088 728.34 748.873 719.249 757.976 716.797 C 762.475 715.586 766.908 716.619 770.755 719.134 C 792.914 733.62 799.097 782.549 805.234 807.125 L 805.655 810.894 C 808.782 831.442 811.296 851.935 813.534 872.592 C 814.927 885.448 815.638 898.859 818.098 911.539 L 817.977 915.801 C 815.876 927.359 815.191 939.294 814.012 950.989 C 811.708 973.84 809.498 996.596 805.633 1019.25 L 805.089 1022.93 C 800.498 1046.1 791.275 1095.89 770.972 1109.35 C 767.099 1111.92 762.808 1112.9 758.243 1111.89 C 749.013 1109.83 743.961 1100.49 738.903 1093.29 C 736.806 1098.76 734.466 1104.21 731.746 1109.4 C 727.871 1116.79 721.717 1126.57 713.174 1128.78 C 708.92 1129.88 704.67 1128.67 701.11 1126.24 C 679.175 1111.26 667.816 1052.32 662.429 1026.38 C 661.593 1026.56 655.346 1040.04 653.935 1042.26 C 650.284 1048.02 645.666 1053.83 639.477 1056.96 C 635.428 1059.01 631.221 1059.51 626.944 1057.86 C 613.133 1052.51 605.355 1033.47 599.813 1020.91 C 583.054 1000.34 578.576 974.204 569.229 950.02 L 569.705 948.019 C 575.788 934.11 580.718 919.733 594.142 911.322 C 581.886 900.681 576.442 887.654 569.478 873.449 L 568.988 872.612 C 575.22 851.877 581.032 819.288 599.033 805.866 C 604.818 794.404 612.173 778.638 624.62 773.245 C 629.348 771.196 634.482 771.139 639.217 773.205 C 651.057 778.37 657.324 793.562 661.79 804.791 z" data-index="1" style="opacity: 1;"></path>
<path transform="translate(0,0)" fill="url(#Gradient1)" d="M 599.033 805.866 C 604.818 794.404 612.173 778.638 624.62 773.245 C 629.348 771.196 634.482 771.139 639.217 773.205 C 651.057 778.37 657.324 793.562 661.79 804.791 L 662.609 806.9 C 677.348 841.509 680.332 878.57 691.568 914.042 L 691.498 915.212 C 681.392 947.307 679.374 996.329 662.643 1024.25 L 662.429 1026.38 C 661.593 1026.56 655.346 1040.04 653.935 1042.26 C 650.284 1048.02 645.666 1053.83 639.477 1056.96 C 635.428 1059.01 631.221 1059.51 626.944 1057.86 C 613.133 1052.51 605.355 1033.47 599.813 1020.91 C 583.054 1000.34 578.576 974.204 569.229 950.02 L 569.705 948.019 C 575.788 934.11 580.718 919.733 594.142 911.322 C 581.886 900.681 576.442 887.654 569.478 873.449 L 568.988 872.612 C 575.22 851.877 581.032 819.288 599.033 805.866 z" data-index="2"></path>
<path transform="translate(0,0)" fill="rgb(27,55,115)" d="M 659.782 811.847 L 662.609 806.9 C 677.348 841.509 680.332 878.57 691.568 914.042 L 691.498 915.212 C 681.392 947.307 679.374 996.329 662.643 1024.25 L 660.441 1016.69 C 645.288 1011.5 643.383 1005.4 635.336 992.709 L 635.21 991.714 C 645.539 974.25 644.197 935.995 651.676 923.887 C 651.765 916.562 651.866 909.25 651.65 901.927 C 648.16 896.358 645.984 867.562 644.312 859.544 C 642.216 849.197 639.232 839.049 635.395 829.213 C 643.361 824.074 650.736 814.22 659.782 811.847 z" data-index="3"></path>
<path transform="translate(0,0)" fill="rgb(69,82,151)" d="M 651.676 923.887 C 654.295 954.417 655.146 986.529 660.441 1016.69 C 645.288 1011.5 643.383 1005.4 635.336 992.709 L 635.21 991.714 C 645.539 974.25 644.197 935.995 651.676 923.887 z" data-index="4"></path>
<path transform="translate(0,0)" fill="rgb(69,82,151)" d="M 635.395 829.213 C 643.361 824.074 650.736 814.22 659.782 811.847 C 657.171 841.78 655.715 872.168 651.65 901.927 C 648.16 896.358 645.984 867.562 644.312 859.544 C 642.216 849.197 639.232 839.049 635.395 829.213 z" data-index="5"></path>
<path transform="translate(0,0)" fill="rgb(116,54,112)" d="M 594.142 911.322 C 599.349 911.714 601.898 912.675 605.406 916.612 C 619.17 932.054 628.568 971.347 635.21 991.714 L 635.336 992.709 C 643.383 1005.4 645.288 1011.5 660.441 1016.69 L 662.643 1024.25 L 662.429 1026.38 C 661.593 1026.56 655.346 1040.04 653.935 1042.26 C 650.284 1048.02 645.666 1053.83 639.477 1056.96 C 635.428 1059.01 631.221 1059.51 626.944 1057.86 C 613.133 1052.51 605.355 1033.47 599.813 1020.91 C 583.054 1000.34 578.576 974.204 569.229 950.02 L 569.705 948.019 C 575.788 934.11 580.718 919.733 594.142 911.322 z" data-index="6"></path>
<path transform="translate(0,0)" fill="rgb(144,107,163)" d="M 635.336 992.709 C 643.383 1005.4 645.288 1011.5 660.441 1016.69 L 662.643 1024.25 L 662.429 1026.38 C 661.593 1026.56 655.346 1040.04 653.935 1042.26 C 650.284 1048.02 645.666 1053.83 639.477 1056.96 C 635.428 1059.01 631.221 1059.51 626.944 1057.86 C 613.133 1052.51 605.355 1033.47 599.813 1020.91 C 604.838 1022.48 609.565 1024.03 614.756 1022.23 C 626.256 1018.26 630.827 1002.91 635.336 992.709 z" data-index="7"></path>
<path transform="translate(0,0)" fill="rgb(51,98,170)" d="M 599.033 805.866 C 604.818 794.404 612.173 778.638 624.62 773.245 C 629.348 771.196 634.482 771.139 639.217 773.205 C 651.057 778.37 657.324 793.562 661.79 804.791 L 662.609 806.9 L 659.782 811.847 C 650.736 814.22 643.361 824.074 635.395 829.213 C 634.707 827.482 633.898 825.779 633.108 824.092 C 627.709 812.56 622.079 806.808 610.199 802.504 C 606.431 803.391 602.728 804.707 599.033 805.866 z" data-index="8"></path>
<path transform="translate(0,0)" fill="rgb(102,162,98)" d="M 739.706 735.839 C 744.088 728.34 748.873 719.249 757.976 716.797 C 762.475 715.586 766.908 716.619 770.755 719.134 C 792.914 733.62 799.097 782.549 805.234 807.125 L 805.655 810.894 C 808.782 831.442 811.296 851.935 813.534 872.592 C 814.927 885.448 815.638 898.859 818.098 911.539 L 817.977 915.801 C 815.876 927.359 815.191 939.294 814.012 950.989 C 811.708 973.84 809.498 996.596 805.633 1019.25 L 805.089 1022.93 C 800.498 1046.1 791.275 1095.89 770.972 1109.35 C 767.099 1111.92 762.808 1112.9 758.243 1111.89 C 749.013 1109.83 743.961 1100.49 738.903 1093.29 L 738.703 1092.67 C 748.921 1066.35 755.248 1034.91 758.432 1006.92 C 759.263 999.616 756.168 991.278 758.708 984.213 C 760.644 931.064 760.303 877.857 757.687 824.738 C 755.856 820.22 756.728 808.235 755.881 802.516 C 752.703 781.077 747.66 757.562 739.469 737.478 L 739.706 735.839 z" data-index="9" style="opacity: 1;"></path>
<path transform="translate(0,0)" fill="rgb(77,119,63)" d="M 805.655 810.894 C 808.782 831.442 811.296 851.935 813.534 872.592 C 814.927 885.448 815.638 898.859 818.098 911.539 L 817.977 915.801 C 815.876 927.359 815.191 939.294 814.012 950.989 C 811.708 973.84 809.498 996.596 805.633 1019.25 C 797.14 1007.18 786.161 939.487 783.295 921.752 C 782.788 918.611 782.335 915.282 782.561 912.102 C 783.598 897.503 799.452 819.504 805.655 810.894 z" data-index="10" style="opacity: 1;"></path>

<path transform="translate(0,0)" fill="rgb(41,148,188)" d="M 661.79 804.791 C 665.359 797.216 667.865 777.435 670.225 768.009 C 674.818 749.666 684.236 711.716 701.716 702.021 C 705.236 700.068 709.081 699.677 712.925 700.918 C 726.923 705.435 733.685 723.801 739.706 735.839 L 739.469 737.478 C 717.816 775.09 710.421 832.53 701.315 875.604 C 698.797 887.514 696.841 903.29 691.568 914.042 C 680.332 878.57 677.348 841.509 662.609 806.9 L 661.79 804.791 z" data-index="12"></path>
<path transform="translate(0,0)" fill="rgb(41,148,188)" d="M 691.498 915.212 C 696.653 927.58 698.854 942.377 701.719 955.482 C 707.925 983.863 713.295 1012.58 720.162 1040.8 C 722.551 1050.62 725.436 1060.53 729.219 1069.89 C 732.281 1077.48 736.17 1084.9 738.703 1092.67 L 738.903 1093.29 C 736.806 1098.76 734.466 1104.21 731.746 1109.4 C 727.871 1116.79 721.717 1126.57 713.174 1128.78 C 708.92 1129.88 704.67 1128.67 701.11 1126.24 C 679.175 1111.26 667.816 1052.32 662.429 1026.38 L 662.643 1024.25 C 679.374 996.329 681.392 947.307 691.498 915.212 z" data-index="13" style="opacity: 1;"></path>
<path transform="translate(0,0)" fill="rgb(233,109,52)" d="M 856.028 759.887 C 860.109 753.587 864.14 746.679 872.073 744.921 C 876.537 743.931 880.829 745.351 884.492 747.941 C 905.733 762.963 916.105 818.939 921.559 844.088 C 924.863 859.321 927.38 878.372 936.006 891.485 C 941.366 887.184 945.474 884.935 952.528 885.63 C 959.407 886.308 970.119 891.097 974.523 896.692 C 990.427 904.232 1014.18 899.576 1031.77 899.912 C 1031.73 891.172 1031.56 882.408 1031.71 873.67 C 1047.19 884.323 1063.76 899.308 1076.46 913.2 L 1076.68 914.759 L 1073.97 918.047 C 1059.06 928.784 1046.26 943.741 1031.87 955.448 C 1032.02 948.172 1033.91 933.633 1030.94 927.363 L 1029.04 926.348 C 1017.81 928.924 1005.22 927.44 993.78 926.901 C 967.546 928.844 959.046 951.783 935.143 934.971 C 920.832 966.908 912.287 1071.54 879.996 1083.26 C 876.273 1084.62 872.254 1084.56 868.69 1082.76 C 863.488 1080.13 858.072 1073.38 855.521 1068.19 C 852.592 1071.62 849.409 1075.55 845.367 1077.69 C 841.73 1079.62 837.115 1080.42 833.179 1078.97 C 816.927 1073 812.666 1038.61 805.927 1024.62 C 805.654 1024.05 805.368 1023.49 805.089 1022.93 L 805.633 1019.25 C 809.498 996.596 811.708 973.84 814.012 950.989 C 815.191 939.294 815.876 927.359 817.977 915.801 L 818.098 911.539 C 815.638 898.859 814.927 885.448 813.534 872.592 C 811.296 851.935 808.782 831.442 805.655 810.894 L 805.234 807.125 C 813.084 789.46 813.985 764.675 830.117 751.432 C 833.188 748.911 836.767 747.477 840.773 748.066 C 847.929 749.117 851.897 754.593 856.028 759.887 z" data-index="14" style="opacity: 1;"></path>
<path transform="translate(0,0)" fill="rgb(230,74,56)" d="M 856.028 759.887 C 860.109 753.587 864.14 746.679 872.073 744.921 C 876.537 743.931 880.829 745.351 884.492 747.941 C 905.733 762.963 916.105 818.939 921.559 844.088 C 924.863 859.321 927.38 878.372 936.006 891.485 C 941.366 887.184 945.474 884.935 952.528 885.63 C 959.407 886.308 970.119 891.097 974.523 896.692 C 990.427 904.232 1014.18 899.576 1031.77 899.912 C 1031.73 891.172 1031.56 882.408 1031.71 873.67 C 1047.19 884.323 1063.76 899.308 1076.46 913.2 L 1076.68 914.759 L 1073.97 918.047 C 1059.06 928.784 1046.26 943.741 1031.87 955.448 C 1032.02 948.172 1033.91 933.633 1030.94 927.363 L 1029.04 926.348 C 1017.81 928.924 1005.22 927.44 993.78 926.901 C 984.208 921.414 971.944 921.218 962.294 916.052 C 959.905 915.931 957.331 915.885 954.975 916.376 C 945.484 918.353 940.131 926.645 935.172 934.162 C 930.111 927.385 925.249 920.395 918.659 915.01 L 916.457 914.578 C 889.851 908.319 877.215 789.648 856.06 760.578 L 856.028 759.887 z" data-index="15"></path>
<path transform="translate(0,0)" fill="rgb(233,109,52)" d="M 1030.23 915.266 C 1040.87 914.354 1065.77 911.412 1073.97 918.047 C 1059.06 928.784 1046.26 943.741 1031.87 955.448 C 1032.02 948.172 1033.91 933.633 1030.94 927.363 L 1029.04 926.348 C 1028.55 923.056 1029.77 918.613 1030.23 915.266 z" data-index="16"></path>
<path transform="translate(0,0)" fill="rgb(222,52,43)" d="M 935.508 892.381 C 939.512 896.794 942.415 901.826 947.139 905.541 L 953.002 910.056 C 956.237 911.825 959.662 913.426 962.294 916.052 C 959.905 915.931 957.331 915.885 954.975 916.376 C 945.484 918.353 940.131 926.645 935.172 934.162 C 930.111 927.385 925.249 920.395 918.659 915.01 C 922.019 906.482 929.371 899.015 935.508 892.381 z" data-index="17"></path>
<path transform="translate(0,0)" fill="rgb(245,161,54)" d="M 916.457 914.578 L 918.659 915.01 C 925.249 920.395 930.111 927.385 935.172 934.162 C 940.131 926.645 945.484 918.353 954.975 916.376 C 957.331 915.885 959.905 915.931 962.294 916.052 C 971.944 921.218 984.208 921.414 993.78 926.901 C 967.546 928.844 959.046 951.783 935.143 934.971 C 920.832 966.908 912.287 1071.54 879.996 1083.26 C 876.273 1084.62 872.254 1084.56 868.69 1082.76 C 863.488 1080.13 858.072 1073.38 855.521 1068.19 L 855.265 1067.12 C 878.211 1036.05 881.056 964.126 902.318 928.193 C 905.561 922.712 910.008 916.266 916.457 914.578 z" data-index="18"></path>
<path transform="translate(0,0)" fill="rgb(245,161,54)" d="M 805.234 807.125 C 813.084 789.46 813.985 764.675 830.117 751.432 C 833.188 748.911 836.767 747.477 840.773 748.066 C 847.929 749.117 851.897 754.593 856.028 759.887 L 856.06 760.578 C 838.369 794.992 831.537 834.927 825.176 872.746 C 823.164 884.71 822.739 900.436 818.098 911.539 C 815.638 898.859 814.927 885.448 813.534 872.592 C 811.296 851.935 808.782 831.442 805.655 810.894 L 805.234 807.125 z" data-index="19" style="opacity: 1;"></path>
<path transform="translate(0,0)" fill="rgb(245,161,54)" d="M 817.977 915.801 C 821.491 928.851 823.039 942.694 825.234 956.031 C 831.454 993.821 837.957 1032.58 855.265 1067.12 L 855.521 1068.19 C 852.592 1071.62 849.409 1075.55 845.367 1077.69 C 841.73 1079.62 837.115 1080.42 833.179 1078.97 C 816.927 1073 812.666 1038.61 805.927 1024.62 C 805.654 1024.05 805.368 1023.49 805.089 1022.93 L 805.633 1019.25 C 809.498 996.596 811.708 973.84 814.012 950.989 C 815.191 939.294 815.876 927.359 817.977 915.801 z" data-index="20" style="opacity: 1;"></path>
<path transform="translate(0,0)" fill="rgb(245,161,54)" d="M 1270.63 680.156 C 1282.16 680.199 1293.7 679.991 1305.23 679.887 L 1305.27 991.901 L 1305.17 1089.96 C 1305.19 1108.14 1305.94 1126.68 1305.03 1144.84 C 1304.96 1146.25 1304.64 1147 1303.82 1148.14 L 1270.4 1148.21 L 1270.63 680.156 z" data-index="21" style="opacity: 1;"></path>
<path transform="translate(0,0)" fill="rgb(245,161,54)" d="M 1215.08 767.98 L 1249.95 767.845 L 1250.04 944.034 C 1250.04 983.137 1250.94 1022.48 1249.61 1061.55 C 1238.12 1061.25 1226.63 1061.52 1215.14 1061.71 L 1215.08 767.98 z" data-index="22"></path>
<path transform="translate(0,0)" fill="rgb(29,32,82)" d="M 482.551 899.538 C 502.328 892.857 507.973 868.714 523.91 856.552 C 529.298 852.44 535.857 849.915 542.692 851.152 C 554.353 853.263 562.382 863.66 568.988 872.612 L 569.478 873.449 C 576.442 887.654 581.886 900.681 594.142 911.322 C 580.718 919.733 575.788 934.11 569.705 948.019 L 569.229 950.02 C 565.688 956.652 561.029 963.65 555.104 968.346 C 549.785 972.562 543.244 974.853 536.444 973.707 C 522.4 971.339 512.872 957.215 505.425 946.316 C 501.088 940.056 496.145 933.014 489.413 929.176 C 474.277 920.545 441.405 932.721 420.809 921.622 C 417.958 920.086 416.216 918.464 415.23 915.286 C 415.354 912.24 416.144 910.246 418.044 907.893 C 428.301 895.193 465.774 901.078 481.135 899.675 L 482.551 899.538 z" data-index="23"></path>
<path transform="translate(0,0)" fill="rgb(27,55,115)" d="M 482.551 899.538 C 502.328 892.857 507.973 868.714 523.91 856.552 C 529.298 852.44 535.857 849.915 542.692 851.152 C 554.353 853.263 562.382 863.66 568.988 872.612 L 569.478 873.449 C 560.875 880.71 560.956 899.519 546.175 909.779 C 522.369 913.821 504.466 908.899 482.551 899.538 z" data-index="24"></path>
<path transform="translate(0,0)" fill="rgb(116,54,112)" d="M 552.553 916.802 C 559.772 925.656 564.803 935.363 568.732 946.095 C 569.161 947.266 568.953 946.775 569.705 948.019 L 569.229 950.02 C 565.688 956.652 561.029 963.65 555.104 968.346 C 549.785 972.562 543.244 974.853 536.444 973.707 C 522.4 971.339 512.872 957.215 505.425 946.316 C 507.493 946.38 506.743 946.287 508.611 946.587 C 516.099 947.789 522.503 948.71 529.919 946.137 C 541.059 942.272 547.593 926.582 552.553 916.802 z" data-index="25"></path>
<path transform="translate(0,0)" fill="rgb(233,109,52)" d="M 1326.14 768.486 C 1337.68 767.944 1349.3 768.069 1360.86 767.947 L 1360.81 1061.86 C 1349.25 1062.01 1337.67 1061.89 1326.11 1061.89 L 1326.14 768.486 z" data-index="26" style="opacity: 1;"></path>
<path transform="translate(0,0)" fill="rgb(222,52,43)" d="M 1436.93 797.886 L 1471.82 797.748 L 1472.01 1030.98 L 1436.98 1031.08 L 1436.93 797.886 z" data-index="27" style="opacity: 1;"></path>
<path transform="translate(0,0)" fill="rgb(78,78,78)" d="M 1133.47 1319.41 C 1137.85 1318.86 1142.52 1318.95 1146.94 1318.73 C 1146.97 1330.86 1147.08 1342.99 1147.27 1355.11 L 1178.84 1354.96 L 1178.86 1381.95 L 1147.13 1381.64 C 1147.23 1396.26 1144.72 1430.85 1147.67 1442.55 C 1148.78 1446.98 1151.02 1450.84 1155.17 1453.01 C 1162.12 1456.65 1169.47 1453.93 1176.46 1451.89 C 1178.37 1459.5 1182.49 1470.25 1181.69 1477.97 L 1180.15 1479.21 C 1171.9 1481.29 1163.62 1483.06 1155.06 1483.04 C 1144.27 1483.01 1133.14 1480.12 1125.49 1472.09 C 1121.12 1467.51 1118.33 1461.8 1116.78 1455.7 C 1112.39 1438.49 1115.03 1400.98 1115.15 1381.96 L 1096.76 1382.02 L 1096.71 1355.43 L 1115.61 1355.29 L 1115.82 1320.43 L 1133.47 1319.41 z" data-index="28"></path>
<path transform="translate(0,0)" fill="rgb(78,78,78)" d="M 1047.61 1302.41 C 1054.25 1301.74 1061.2 1301.91 1067.88 1301.69 L 1068.1 1391.39 C 1068.05 1404.28 1065.97 1437.36 1068.86 1447.25 C 1069.64 1449.92 1071.2 1452.18 1073.74 1453.45 C 1077.98 1455.55 1083.28 1453.7 1087.61 1452.71 C 1088.48 1461.63 1089.79 1470.5 1091.04 1479.37 L 1082.93 1481.82 C 1078.85 1482.51 1074.86 1483.09 1070.73 1483.13 C 1061.1 1483.23 1051.39 1481.12 1044.48 1473.97 C 1039.56 1468.88 1037.53 1461.52 1036.46 1454.69 C 1033.72 1437.28 1035.16 1418.05 1035.15 1400.4 L 1035.18 1303.36 L 1047.61 1302.41 z" data-index="29"></path>
<path transform="translate(0,0)" fill="rgb(78,78,78)" d="M 903.432 1302.58 C 909.805 1302.07 916.243 1301.9 922.63 1301.57 L 922.701 1398.69 C 922.685 1413.76 921.081 1431.04 923.365 1445.87 C 923.812 1448.77 924.986 1451.16 927.621 1452.73 C 931.841 1455.23 937.797 1453.74 942.362 1453.05 L 945.311 1479.91 C 940.363 1481.27 935.286 1482.01 930.231 1482.87 C 929.889 1482.88 929.547 1482.91 929.205 1482.92 C 918.773 1483.27 908.316 1482.27 900.497 1474.54 C 894.952 1469.05 892.629 1462.7 891.284 1455.12 C 888.186 1437.65 889.973 1417.9 890.001 1400.19 L 890.047 1303.45 L 903.432 1302.58 z" data-index="30" style="opacity: 1;"></path>
<path transform="translate(0,0)" fill="rgb(245,161,54)" d="M 1175.48 834.504 L 1194.88 834.382 C 1195.73 887.793 1195.14 941.298 1195 994.716 C 1188.94 994.436 1182.82 994.53 1176.75 994.475 L 1159.9 994.626 L 1159.9 834.732 L 1175.48 834.504 z" data-index="31"></path>
<path transform="translate(0,0)" fill="rgb(233,109,52)" d="M 1381.65 834.909 L 1415.97 834.932 L 1416.1 994.263 C 1404.65 994.148 1393.18 994.278 1381.72 994.291 L 1381.65 834.909 z" data-index="32" style="opacity: 1;"></path>
<path transform="translate(0,0)" fill="rgb(78,78,78)" d="M 967.324 1355.08 C 978.212 1355.16 989.118 1354.98 1000.01 1354.92 L 1000.07 1439.1 C 1000.09 1452.98 1001.31 1467.93 999.545 1481.63 C 988.905 1481.46 978.262 1481.42 967.621 1481.53 L 967.324 1355.08 z" data-index="33"></path>
<path transform="translate(0,0)" fill="rgb(245,245,244)" d="M 1935.29 1887.56 C 1939.11 1891.15 1940.18 1897.15 1942.42 1901.77 C 1951.62 1920.72 1967.66 1928.12 1985.89 1936.11 C 1981.9 1937.64 1977.92 1939.22 1973.97 1940.86 C 1953.77 1949.38 1944.56 1965.07 1936.58 1984.5 C 1933.84 1982.47 1932.47 1978.11 1931.02 1975.1 C 1918.89 1949.86 1911.27 1945.88 1886.07 1935.8 C 1916 1923.58 1922.32 1915.61 1935.29 1887.56 z" data-index="34"></path>
<path transform="translate(0,0)" fill="rgb(222,52,43)" d="M 1493.02 869.539 L 1527.36 869.208 C 1527.97 899.106 1527.7 929.086 1527.71 958.994 L 1493.03 959.046 L 1493.02 869.539 z" data-index="35" style="opacity: 1;"></path>
<path transform="translate(0,0)" fill="rgb(222,52,43)" d="M 1562.4 877.519 C 1569.53 877.3 1576.7 877.396 1583.84 877.357 L 1584.01 951.012 L 1569 950.973 L 1549.1 951.052 C 1548.89 926.607 1548.86 902.161 1549 877.715 L 1562.4 877.519 z" data-index="36"></path>
<path transform="translate(0,0)" fill="rgb(245,161,54)" d="M 1103.3 897.02 L 1138.82 896.851 L 1138.8 931.426 L 1103.22 931.557 L 1103.3 897.02 z" data-index="37"></path>
<path transform="translate(0,0)" fill="rgb(78,78,78)" d="M 984.651 1300.45 C 989.355 1300.52 996.427 1299.78 999.904 1303.58 C 1005.32 1309.5 1002.38 1325.53 1002.11 1333.09 C 996.673 1333.56 991.208 1333.46 985.75 1333.48 C 979.407 1333.62 973.176 1333.37 966.845 1333.01 C 966.534 1326.54 965.698 1320.06 965.46 1313.62 C 965.321 1309.83 965.652 1306.02 968.655 1303.3 C 972.562 1299.76 979.709 1300.57 984.651 1300.45 z" data-index="38"></path>
<path transform="translate(0,0)" fill="rgb(222,52,43)" d="M 1604.36 897.246 L 1638.83 897.092 C 1639.13 908.276 1638.97 919.513 1639 930.703 C 1627.57 930.379 1616.07 930.58 1604.63 930.566 L 1604.36 897.246 z" data-index="39"></path>
</svg>